<?xml version="1.0" encoding="UTF-8"?>
<svg width="1009px" height="1009px" viewBox="0 0 1009 1009" version="1.1" xmlns="http://www.w3.org/2000/svg" xmlns:xlink="http://www.w3.org/1999/xlink">
    <!-- Generator: Sketch 41.2 (35397) - http://www.bohemiancoding.com/sketch -->
    <title>Group 5</title>
    <desc>Created with Sketch.</desc>
    <defs></defs>
    <g id="Page-1" stroke="none" stroke-width="1" fill="none" fill-rule="evenodd">
        <g id="Group-5" transform="translate(-15.371138, 0.000000)" fill="#FFFFFF">
            <path d="M519.797766,1008.24615 C798.217254,1008.24615 1023.92084,782.542564 1023.92084,504.123077 C1023.92084,225.70359 798.217254,0 519.797766,0 C241.378279,0 15.6746895,225.70359 15.6746895,504.123077 C15.6746895,782.542564 241.378279,1008.24615 519.797766,1008.24615 Z M588.787106,602.966736 L387.708983,358.800444 L149.749357,661.651186 L897.972243,661.740678 L724.959161,447.874191 L590.36648,601.694398 L588.787106,602.966736 Z M590.769231,393.846154 C621.221362,393.846154 645.907692,369.159824 645.907692,338.707692 C645.907692,308.255561 621.221362,283.569231 590.769231,283.569231 C560.317099,283.569231 535.630769,308.255561 535.630769,338.707692 C535.630769,369.159824 560.317099,393.846154 590.769231,393.846154 Z" id="Combined-Shape"></path>
        </g>
    </g>
</svg>